<?xml version="1.0" encoding="UTF-8"?><svg id="Layer_1" xmlns="http://www.w3.org/2000/svg" viewBox="0 0 750.00005 311.11854"><defs><style>.cls-1{fill:#fff;}</style></defs><path class="cls-1" d="M215.62412,127.9335c.44642-.71057,2.68084-2.31781,2.82697-2.82697.09092-.31654-.09085-.71139,0-1.02799.24909-.86768,2.05541-1.45195,2.82697-1.79898.21339-.09593.31466-.44052.51399-.51399,1.12336-.41386,2.47724-.31284,3.59796-.51399.19658-.03526.32219-.48545.51399-.51399,1.36674-.20329,3.12306-.31949,3.34097,1.28499.12122.89259.11168,2.6937,0,3.59796-.22123,1.79208-1.49794,4.36413-2.05598,6.16794-3.18166,10.28523-4.96533,20.62392-7.70992,30.83969-1.143,4.25451-2.59513,8.64361-3.59796,12.84987-1.53916,6.45599-2.48226,13.12858-4.11196,19.53181-.39165,1.53891-.63051,3.76536-1.54198,5.13995-.80036,1.20706-2.79039,2.62531-3.85496,3.85496-.31259.36109-.95935.66263-.77099,1.28499l1.28499,1.28499h15.93384l4.88295-4.88295-1.79898-2.31298c-1.52912.1893-3.55003-.50032-4.62595.51399l-1.79898-.77099,2.56997-5.65394c4.03466-15.24172,8.39088-30.39133,12.33588-45.74554,1.00747-3.92097,1.56144-7.61066,2.56997-11.30789.43952-1.61113,5.78288-8.15415,7.45293-9.50891,3.03384-2.46099,8.09473-5.25533,11.82188-6.16794.54599-.13364,1.88262-.48865,2.05598-.51399,1.56922-.22958,3.60537.2553,5.13995,0,.19683-.03269.34283-.51399.51399-.51399.16809,0,.30406.45796.51399.51399.33643.08979.74746-.10729,1.02799,0,.33806.12931,1.14545.79176,1.54198,1.02799.13208.07868.39798-.07435.51399,0,.4424.28348.83079.93933,1.28499,1.28499-.42716.95038.49153,1.90232.51399,2.05598.44837,3.06408-.45941,6.02193-1.02799,8.73791-.91543,4.37329-2.3771,8.02974-3.59796,12.33588-.78197,2.75839-.97441,5.90027-1.54198,8.73791-1.56351,7.81721-2.65242,15.99131-4.62595,23.64376-1.75437,6.80278-3.04074,13.90359-5.13995,20.55979.11871,2.00817.14249,3.78657-1.54198,5.13995l.51399,1.28499,3.85496,1.54198c.25819-.57906.87753-.42314,1.02799-.51399.98269-.59318,2.56433-2.65976,3.59796-3.59796.09612-.08721.42421.08345.51399,0,4.33181-4.02362,3.92298-5.00536,5.39695-10.0229,1.15856-3.94368,2.45961-7.80655,3.59796-11.82188,2.57267-9.07428,4.73563-18.75586,6.16794-28.26972.64933-4.31261.93513-8.20779,2.56997-12.33588,3.0723-7.75729,10.80901-17.00694,18.76081-19.27481,1.42811-.40727,3.2151-.69834,4.62595-1.02799,1.20499-.28147,1.82678.49078,2.82697.51399l1.54198,3.34097c2.89994,10.61143,2.20361,21.37025-.51399,31.86768-1.03966,4.01602-1.33211,8.06976-2.56997,12.33588-1.255,4.32541-3.21535,8.97684-4.11196,13.36387-.51644,2.52712-.31893,4.58392-.51399,7.19593-.01362.18315-.4985.32965-.51399.51399-.17844,2.12933.30713,3.50987.51399,5.13995.12304.96945-.16345,2.16735,0,3.08397.03401.19061.4542.30468.51399.51399.09512.3326-.11099.74947,0,1.02799.96995,2.4325,4.60418,4.57394,6.42494,6.42494l2.56997,1.02799h4.11196c.19074-.03401.30493-.45464.51399-.51399,5.46954-1.55184,10.16508-6.05362,13.62086-10.53689.88939-1.15379,2.63473-1.76096.77099-3.34097-2.68335,1.44442-4.33689,4.34286-6.68193,6.16794-.10334.0805-.40087-.0847-.51399,0-.86605.64889-1.76799,1.32514-2.56997,2.05598-.65272.34227-1.46506.34509-2.05598.51399-.20931.05986-.32338.47999-.51399.51399-1.8702.33361-2.66503-.17261-4.11196-1.02799-.13584-.08031-.40344.07328-.51399,0-.33342-.22111-1.6132-1.4869-1.79898-1.79898-.06632-.11143.07303-.35638,0-.51399-.09813-.21188-.43381-.31296-.51399-.51399-.11099-.27852.09512-.69539,0-1.02799-.05979-.20931-.47999-.32338-.51399-.51399-1.24-6.95236,1.55359-15.36683,3.59796-21.58778,2.61873-7.96836,6.33283-16.74719,8.22392-24.67175.6659-2.79033,1.04336-5.93127,1.54198-8.73791.5012-2.8207.79182-6.715.51399-9.7659-.01682-.18503-.48978-.32351-.51399-.51399-.21163-1.6681-.05421-3.52273-.51399-5.13995-.3252-1.14394-1.91681-4.75527-2.56997-5.65394-1.5386-2.11703-3.50749-3.9226-5.39695-5.39695-.88682-.692-.91982-1.02454-2.05598-1.54198-.21992-.10014-.32507-.46173-.51399-.51399-.42295-.11702-1.06777.09575-1.54198,0-.19413-.03921-.30688-.4569-.51399-.51399-.67694-.18654-.82125.46769-1.02799.51399-.72977.16351-1.79264-.13797-2.56997,0-.19275.03426-.30958.46342-.51399.51399-9.24488,2.28794-16.38873,9.30825-22.35878,16.19084-.37282.42986-2.08566,2.32772-2.56997,1.79898.08395-1.08352-.12141-2.28041,0-3.34097.02158-.18792.48532-.32087.51399-.51399.23265-1.56564-.31968-2.19082-.51399-3.08397-.10146-.46662.11683-1.11345,0-1.54198-.06124-.22468-1.89303-3.86644-2.05598-4.11196-1.11069-1.67375-3.05222-2.67846-4.88295-3.34097-.21258-.07692-.31723-.46029-.51399-.51399-.42848-.11689-1.07574.10183-1.54198,0-.20178-.04405-.32401-.4862-.51399-.51399-.76258-.11156-2.30313-.09744-3.08397,0-.1893.02365-.32074.48494-.51399.51399-4.16146.62656-8.10314.95194-11.82188,2.56997-1.86035.80945-4.43032,2.87968-6.16794,4.11196-2.72972,1.93595-5.32598,4.21436-7.96692,6.42494-.52146.43651-.6627.98024-1.54198.77099-.10315-.76164.35406-1.03357.51399-1.79898.13408-.6413.5-1.94235.51399-2.05598.14349-1.16088.21722-5.16348,0-6.16794-.08044-.37213-1.19884-1.45132-1.02799-2.05598-2.49794-2.56031-3.57048-4.3394-7.45293-3.85496-.1893.02365-.32074.48494-.51399.51399-1.38243.20812-2.81242-.00314-4.11196.51399-1.97598.78636-7.0136,5.10588-8.73791,6.68193-.87264.7976-3.38018,3.05724-3.85496,3.85496-.06582.11068.07259.35463,0,.51399-.10127.22249-.47164.33053-.51399.51399-.43644,1.8931.92534,2.46344,2.31298,3.34097Z"/><path class="cls-1" d="M619.36709,166.22612c1.94003-9.14399,4.44475-17.76683,7.19593-26.72773,1.96651-6.40492,3.77176-12.87227,5.13995-19.53181l2.05598-3.08397c-.37401-1.92491-2.07788-2.99443-3.34097-4.36896-.59437-.1716-1.68504.92704-2.05598,1.02799-.43757.11915-1.10749-.12022-1.54198,0-1.79515.49674-5.40284,5.39644-7.70992,6.68193-.24307.13546-.67499-.096-.77099,0-.05659.05659.146,1.0204-.51399,1.28499v.51399l1.02799,2.31298-6.42494-7.19593c-.2137.05653-.40432.08226-.51399,0-.78768-.59092-2.75708-2.34065-3.59796-2.56997-.42822-.11683-1.07498.10127-1.54198,0-.20103-.04361-.32144-.48218-.51399-.51399-1.93237-.31893-4.52814-.08458-6.16794-1.02799-2.11571.95765-5.35183.51663-7.70992,1.02799-.50251.10899-2.89643,1.63641-3.59796,2.05598-2.70732,1.61922-5.82963,4.46985-8.22392,6.68193-7.97928,7.37224-13.89317,15.45109-17.21883,25.44275-1.84397,5.54013-3.73443,11.76334-5.13995,17.47583-1.67939,6.82599-2.02881,14.2675-1.02799,21.58778.07441.54399.8631,2.43595,1.02799,3.08397.43895,1.72451.81604,3.98553,1.54198,5.65394,1.34459,3.09006,3.71849,5.57043,6.42494,7.45293.37031.25756.67255.81378,1.02799,1.02799.88293.53207,2.5258.76083,3.59796,1.02799.20461.05101.32125.47961.51399.51399.91668.16351,2.11458-.12298,3.08397,0,.19049.02416.32903.49718.51399.51399,1.48432.13515,4.21122.17813,5.65394,0,.18836-.02322.31698-.47905.51399-.51399.62907-.11156,1.44887.12417,2.05598,0,.19576-.04003.30951-.46142.51399-.51399,2.67601-.68754,5.14033-1.94254,7.19593-3.59796,1.47949-1.19144,5.82141-5.55751,6.42494-6.93893.12379-.28329-.11984-.72808,0-1.02799.11846-.29627.98752-1.35457,1.02799-1.54198.20272-.93745-.14023-2.31724,0-3.34097l-2.05598,1.79898-1.54198,3.08397c-3.29322,4.66096-9.53538,8.05727-15.16285,7.45293-.18741-.02014-.32652-.49429-.51399-.51399-1.8217-.19156-3.40283.12511-5.13995-.51399-.64563-.23755-1.88758-1.12254-2.56997-1.54198-.13038-.08012-.40087.0751-.51399,0-.4052-.26892-1.49474-1.3808-1.79898-1.79898-.07749-.10654.08357-.39121,0-.51399-.2388-.35105-.95621-.78492-1.02799-1.02799-.21145-.71622-.32959-1.82483-.51399-2.56997-.61947-2.50372-.69093-4.54018-1.02799-7.19593-.93061-7.33359.61991-15.27949,2.56997-22.10178,2.34956-8.21965,4.62828-16.34751,8.73791-24.15776,2.62569-4.98993,5.79913-10.67945,9.25191-14.90585,1.49461-1.82941,3.71517-2.95171,5.91094-3.85496,1.21559-.5,2.8591-1.26918,4.11196-1.54198.59769-.13013,1.43193.11608,2.05598,0,.19639-.03652.31792-.47817.51399-.51399,1.43607-.26227,2.13955.45131,2.56997.51399.80218.11689,1.79723-.13778,2.56997,0,.1908.03401.30493.45476.51399.51399.92183.26133,2.26222.47905,3.08397,1.02799.70329.46976,1.14796,1.64482,2.05598,1.54198l3.34097,4.88295,2.05598,6.16794c-.1167.68259-.30129,2.00133-.51399,2.56997-.548,1.46556-1.04004,2.4037-1.54198,4.11196-1.53878,5.23764-2.54557,10.4542-4.11196,15.93384-1.2917,4.51898-1.79572,9.36629-3.08397,13.87786-2.69201,9.42809-3.01175,18.11386-5.13995,27.24173-.18208.78109-.82401,2.29033-1.02799,3.08397-4.18468,16.28702-8.3666,33.02499-16.96183,48.31552-1.08578,1.93162-2.30187,4.48039-3.59796,6.16794-.77633,1.01086-2.85659,2.77169-3.85496,3.34097-2.4906,1.42014-5.96176,2.15267-8.73791,3.08397-1.60523.53859-4.043,1.82031-5.65394,2.05598-2.00804.29383-6.60024.17405-8.73791,0-.18384-.01493-.32652-.49429-.51399-.51399-2.81712-.29621-3.5238-.14375-6.16794-1.02799-1.07913-.36084-1.36724-.31698-2.56997-1.02799-.94473-.55848-2.22194-1.4032-3.08397-2.05598-.8887-.67299-.94191-1.30914-1.28499-1.79898-.37006-.5283-1.36461-1.40583-1.54198-2.05598-.11677-.42829.10133-1.07505,0-1.54198-.04367-.20141-.48438-.32282-.51399-.51399-.13389-.86542.09104-1.92271,0-2.82697l2.31298,1.54198c2.01582.58515,4.05562.64977,6.16794,1.02799.19363.0347.31133.46669.51399.51399,1.27714.29841,1.84842-.48313,2.05598-.51399.80017-.11902,1.79672.13791,2.56997,0,.1908-.03401.30493-.4547.51399-.51399.89893-.2548,2.27207-.48965,3.08397-1.02799.58188-.38581,3.47041-3.27383,3.85496-3.85496.13233-.1999.95853-1.86731,1.02799-2.05598.15924-.43211-.27005-1.12982.51399-1.54198v-5.13995c-.78693-.40752-.35193-1.13559-.51399-1.54198-.08012-.20097-.4158-.30211-.51399-.51399-.07297-.15755.06638-.4025,0-.51399-.29264-.49178-2.78487-2.9364-3.34097-3.34097-.10648-.07749-.39114.08357-.51399,0-.35105-.23886-.78492-.95621-1.02799-1.02799-.71622-.21145-1.82483-.32959-2.56997-.51399-.20436-.05057-.32118-.47974-.51399-.51399-1.1174-.19833-4.9979-.17116-6.16794,0-.18999.0278-.31234.47026-.51399.51399-.46694.10127-1.1137-.11683-1.54198,0-.6514.17769-1.52799,1.17437-2.05598,1.54198-1.71572,1.19476-6.26199,5.1397-7.45293,6.93893-.95602,1.44448-1.64375,4.51358-2.05598,6.16794-.05095.20461-.47955.32118-.51399.51399.17035,2.32747-.2356,4.91338,0,7.19593.01926.18635.48488.32043.51399.51399.12028.79891-.13791,1.79641,0,2.56997.03407.19074.45476.30493.51399.51399.09355.32978-.10641.74019,0,1.02799.09048.24464.93864,1.92121,1.02799,2.05598.41875.63151,3.73725,3.94983,4.36896,4.36896.21327.14149,1.2971.36692,1.54198.51399.62794.37715,1.28097,1.23241,2.05598,1.54198.66715.26653,2.51501.87659,3.08397,1.02799,5.95461,1.58452,16.14246,1.53753,22.10178,0,.58508-.15096,1.96237-.84854,2.56997-1.02799,2.7178-.80249,5.4905-1.72846,7.70992-3.08397,10.31278-6.29851,19.2307-21.28015,23.90076-32.12468,5.52137-12.8212,8.70855-25.85227,12.84987-39.06361,2.626-8.37707,4.83439-16.99126,6.68193-25.69974Z"/><path class="cls-1" d="M336.66991,232.01746c3.40798-10.44077,6.67152-21.27733,9.25191-31.86768l1.02799-3.34097,1.54198,2.31298c-.03376,1.10297.1509,2.68523.51399,3.59796,1.01249,2.54481,6.5518,4.65726,8.99491,5.91094.34973.17951.75518.94743,1.02799,1.02799.71628.21151,1.8249.32965,2.56997.51399.20442.05057.32125.4798.51399.51399,1.92353.34145,4.95912-.0682,6.68193-.51399.60585-.15673,1.93099-.82219,2.56997-1.02799,2.30087-.74088,2.52078-.58885,4.62595-2.05598,3.9317-2.73995,7.99522-7.3915,11.05089-11.05089,4.25388-5.09427,8.03625-9.7504,10.2799-15.93384,1.13553-3.1294,2.09212-6.65997,3.08397-9.7659,1.56118-4.88854,2.50554-9.86849,4.11196-14.90585.50452-1.58189,1.2378-3.51088,1.54198-5.13995,1.11501-5.9708.49448-12.30538-.51399-17.98982-.41229-2.32408-.84654-4.45855-1.54198-6.68193-.91919-1.78317-1.93589-3.08548-3.08397-4.62595-.08477-.11375.08025-.41066,0-.51399-.98601-1.2698-4.17658-4.34976-5.39695-4.88295-.28322-.12373-.72801.1199-1.02799,0-.29621-.1184-1.35457-.98746-1.54198-1.02799-.597-.12906-1.42497.11024-2.05598,0-.19664-.03432-.32558-.49072-.51399-.51399-3.57011-.44084-7.31746.01035-10.2799,1.54198-3.91764,2.02555-8.25416,5.12502-11.82188,8.22392-1.5977,1.38782-3.23644,3.1208-4.36896,4.88295l.77099,1.28499c.44504-.73705.94341-.41994,1.54198-.51399,3.45905-.54342,5.92832-2.41224,9.25191-4.11196.66301-.33907,1.63654-1.37546,2.56997-1.54198,1.07775-.19218,5.60268-.19156,6.68193,0,.19281.03426.30964.46342.51399.51399.74621.18465,1.85181.30293,2.56997.51399.20028.05885,1.82458,1.52636,2.31298,1.79898.26365.88701.6856,1.70901,1.02799,2.56997.74106,1.86311.68497,3.20895,1.02799,5.13995,1.17412,6.60821.98369,16.7918-.51399,23.12977-.83988,3.55467-2.22394,6.99201-3.08397,10.79389-2.19364,9.69751-4.03591,17.03399-9.25191,26.21374-.67939,1.1957-1.67406,4.15337-2.82697,4.88295-.1317.08339-.4089-.07454-.51399,0-1.37998.97867-1.93313,1.37113-3.59796,2.05598-.40175.16527-1.82207.98627-2.05598,1.02799-.77676.13854-1.79315-.13854-2.56997,0-.18949.03382-.30255.44975-.51399.51399-1.00358.305-1.39416-.48708-1.54198-.51399-1.73699-.31642-3.36236-.40501-5.13995-1.02799-1.11188-.3897-3.02775-1.07022-4.11196-1.54198-.44849-.19513-1.77771-.85011-2.05598-1.02799-.27933-.17863-1.1051-1.00496-1.28499-1.28499-.36222-.56413-.68679-1.90414-1.02799-2.56997-.17913-.34961-.94736-.75506-1.02799-1.02799-.47447-1.60718-.69074-3.11064-1.02799-4.62595-.04474-.20116-.47842-.31943-.51399-.51399-.08514-.46644-.08514-1.58954,0-2.05598.03608-.1972.4862-.32282.51399-.51399.11432-.78461-.18007-1.91644,0-2.56997.04317-.15667,1.37609-1.77043,1.54198-2.56997,1.66973-8.04466,2.85765-16.16769,4.62595-24.15776,1.76027-7.95356,2.87641-15.95078,4.11196-24.15776.1632-1.08377.94247-3.6097,1.02799-4.62595.10974-1.3035.1327-3.34084,0-4.62595-.0192-.18635-.48482-.32043-.51399-.51399-.12028-.79898.12969-1.78367,0-2.56997-.03169-.19243-.4702-.31284-.51399-.51399-.10146-.46669.11683-1.11351,0-1.54198-.04618-.16934-1.42949-2.9145-1.54198-3.08397-.91524-1.3791-3.12444-2.9859-4.36896-3.85496l-1.54198-.51399h-6.16794c-.6775.74539-2.11634.74232-3.08397,1.02799-1.01343.29922-3.53773,3.15161-4.62595,4.11196-.08935.07887-.40394-.08985-.51399,0-.69997.57166-2.53227,2.53885-2.31298,3.34097l1.79898.77099c1.48018-1.43764,3.2503-2.33236,5.13995-3.08397.21891-.08703.32639-.47258.51399-.51399.70003-.15435,3.8687-.13509,4.62595,0,.19269.03438.30914.46236.51399.51399.33819.08521.74307-.10302,1.02799,0,.30324.10961.43776.78549,1.28499.51399-.27149.84723.40438.98181.51399,1.28499.10302.28492-.08521.68986,0,1.02799.0517.20492.47967.32137.51399.51399.15516.86981.1152,3.17921,0,4.11196-.02322.18829-.47892.31692-.51399.51399-.91543,5.1525-.99235,8.87771-2.56997,13.87786-3.20193,10.14864-6.13425,20.19224-8.73791,30.3257-1.45716,5.67145-2.47931,10.85507-3.59796,16.44784-1.72733,8.63627-4.90755,17.3253-7.19593,25.69974-2.14853,7.8627-3.64772,15.69755-6.16794,23.64376-.14569.45941-.32363.8855-.51399,1.54198-.06005.20718-.46788.31679-.51399.51399-.2713,1.16151.23253,1.43796.51399,2.05598.07259.15937-.06582.40338,0,.51399.64369,1.08151,1.78838,1.33192,2.82697,1.79898.50258.226,1.62606.90526,2.05598,1.02799.42415.12109,1.08484-.10905,1.54198,0,.36379.08677.77049.80017,2.05598.51399.73855-.7112,3.08133-1.37051,3.34097-2.31298.21709-.78774-.16169-2.17293,0-3.08397.20799-1.17142,1.56445-4.14791,2.05598-5.65394Z"/><path class="cls-1" d="M748.1228,109.42968l-4.11196,3.08397c-1.55002-1.73354-3.55894-2.73624-5.65394-3.59796-3.97744-1.63604-6.40411-1.59438-10.79389-2.05598-.18741-.0197-.33009-.499-.51399-.51399-1.57342-.12806-4.68769-.21659-6.16794,0-.19061.02792-.31453.47415-.51399.51399-.47591.09518-1.12982-.12066-1.54198,0-.20235.05929-.30719.44799-.51399.51399-.30569.09763-.7063-.0923-1.02799,0-.23993.06889-.6775.78975-1.02799,1.02799-2.70933,1.84202-5.07495,4.63649-7.70992,6.68193-2.44788,1.90031-3.11384,3.30514-4.88295,5.91094-1.10579,4.17037-2.04023,8.53651-1.54198,13.36387.01926.18635.48488.32043.51399.51399.34823,2.3126.20109,4.74937,1.54198,6.68193,12.22313,25.5666,35.1683,45.92192,29.8117,76.07124-1.77175,9.97264-6.69542,20.11846-15.16285,26.47074-10.42408,7.82023-22.16032,11.51551-34.43766,13.36387-1.88055.28316-4.82052.90024-6.68193,1.02799-2.29873.1578-4.29919-.36002-6.16794-.51399-3.39687-.27984-5.08624-.37119-8.22392-1.02799-5.41759-1.13403-12.58892-4.18838-16.96183-7.70992-4.03246-3.24742-6.80911-7.92658-8.99491-12.59287-.94002-2.00691-2.23248-5.58725-2.56997-7.70992-.11256-.70831.07466-1.56965,0-2.31298-.99411-.35293-1.37233.90809-1.79898,1.02799-.31767.08935-.7117-.0911-1.02799,0-.91894.26478-.63296,1.49443-.77099,1.79898-.14362.31692-.98796,1.35689-1.02799,1.54198-.30757,1.42277-.23817,9.67982,0,11.30789.02786.19005.4702.31234.51399.51399.10146.46681-.11683,1.1137,0,1.54198.06425.23554.90432,1.23272,1.02799,1.54198.11997.29985-.12373.74464,0,1.02799.34785.79653,1.20179,1.48928,1.54198,2.05598,4.41959,7.36132,11.7107,12.06024,19.7888,14.13486,2.11665.54361,4.50135,1.15461,6.68193,1.54198,4.18085.74282,8.70874.42208,12.84987,1.02799.18936.02773.31027.46644.51399.51399.60755.14193,6.55243-.79647,7.70992-1.02799,3.22696-.64538,6.64253-1.12411,9.7659-2.05598,7.53832-2.24892,14.04482-6.13745,21.07379-9.7659,21.87371-12.7476,36.41885-33.2754,32.12468-58.85241-1.77457-10.57009-6.90166-20.98545-12.33588-30.83969-5.45178-9.88624-12.50629-19.65284-15.41985-30.3257-.17587-.64425-.96449-2.56985-1.02799-3.08397-.33436-2.70876-.15686-8.96279.51399-11.30789.06808-.23792.85626-.68139.51399-1.54198l1.79898-2.31298c.86373.34089,1.29835-.44259,1.54198-.51399.41216-.12066,1.06608.09518,1.54198,0,.19946-.03984.32338-.48607.51399-.51399,1.61401-.23617,6.05155-.20473,7.70992,0,.18836.02328.31692.47898.51399.51399.629.11175,1.45082-.12524,2.05598,0,1.63158.33775,3.83859,2.12381,5.65394,2.56997.4936.85086,2.60524,1.50572,2.82697,2.31298.20837.75844-.11426,2.15166,0,3.08397.07925.64632.74646,1.51933.51399,3.08397-.11124.74909-.90188,2.83312-1.02799,3.59796-.15272.92678.38317,1.98357-.51399,2.56997l2.31298,2.31298c.25367-.57749.88977-.42678,1.02799-.51399.43557-.27469,4.28695-4.07111,4.36896-4.36896.26459-.96023-.1258-2.90622,0-4.11196.06921-.6627.8695-2.83412,1.02799-3.59796.5822-2.80539,1.02975-5.363,1.54198-8.22392.0347-.19363.46669-.31133.51399-.51399.38995-1.66898-.75066-2.27502-1.79898-3.34097Z"/><path class="cls-1" d="M483.15845,160.57217c-.74495,3.15129-.97196,6.04383-1.54198,9.25191-.19827,1.11621-.94416,3.59702-1.02799,4.62595-.42101,5.17163.13082,9.81026,1.02799,14.39186.12084.61696-.12586,1.44856,0,2.05598.2575,1.24245,1.84535,4.2697,2.56997,5.65394.5209.99492,1.42196,2.78142,2.05598,3.59796.63064.81203,4.18255,4.46608,4.88295,4.88295.15454.09198.76836-.0655,1.02799.51399h8.73791c6.39978-2.19496,10.85846-7.13425,15.67684-12.07888l2.05598-6.42494-1.79898.51399c-2.53998,2.74798-4.69698,6.27071-7.70992,8.22392-.53545.34716-2.00008,1.31435-2.56997,1.54198-.54097.21615-1.93739.33172-2.56997.51399-.20699.05967-.31673.46813-.51399.51399-1.27953.29784-1.79741-.46769-2.05598-.51399-.62813-.11244-1.45101.12555-2.05598,0-.19425-.04028-.30594-.45451-.51399-.51399-.33254-.09506-.74947.11106-1.02799,0-.20097-.08012-.30211-.41586-.51399-.51399-.15755-.07297-.4025.06632-.51399,0-1.10924-.66019-1.86662-2.62161-2.31298-3.85496-.07692-.21258-.46029-.31723-.51399-.51399-.62173-2.27928-1.82634-9.5431-1.54198-11.82188.48725-3.90453.69909-8.04133,1.54198-11.82188,1.53044-6.86389,3.78243-13.68844,6.16794-20.55979,2.04713-5.89638,3.25877-11.46983,5.65394-16.96183.89824-2.05949,2.48941-4.03893,3.08397-6.16794l4.36896-2.31298c2.41199.29728,4.27208-.81466,6.68193-.51399.1893.02365.32081.48494.51399.51399,1.36925.20618,2.75086.01311,4.11196.51399,3.57745,1.31642,7.92444,4.28544,10.0229,7.45293.13898.20975.38594,1.18924.51399,1.54198.06663.18352.38179.30211.51399.51399.29119,1.27959-.42816,1.69577-.51399,2.05598-.32834,1.37866-.49643,3.15343-1.02799,4.62595-1.63867,4.54006-3.0317,8.7568-4.11196,13.36387-1.05102,4.48271-1.61891,9.33448-2.56997,13.87786-1.17042,5.59133-2.64483,11.30425-3.59796,16.96183-.3695,2.19351-.87659,5.13901-1.02799,7.19593-.11859,1.61182-.25712,5.23996,0,6.68193.03407.19074.4547.30493.51399.51399.09349.32947-.1061.73943,0,1.02799.35576.96681,2.04958,3.9317,2.56997,4.62595.88381,1.17908,2.22808,2.1164,3.34097,2.82697h7.70992c2.36399-.821,4.05888-2.01714,6.16794-3.59796,2.56088-1.91932,5.09289-3.77597,6.93893-6.42494.68905-.98871,2.11395-1.99167,1.28499-3.34097-.8188-1.33286-2.22401-.02591-2.82697.77099-1.71641,2.26855-3.5568,4.17257-5.91094,5.91094-1.63127.5209-3.17275,1.32069-5.13995,1.02799-.18967-.02823-.31039-.46662-.51399-.51399-.83919-.1952-1.66691.35306-2.31298-.77099-.28166-3.02537-2.66422-5.31105-2.56997-8.22392,1.52385-3.51753,2.03766-7.33378,3.08397-11.30789,1.29741-4.92762,2.82051-9.94798,4.11196-14.90585,1.69006-6.48774,3.00987-13.0669,5.13995-19.53181,1.88243-5.71305,2.86205-10.91668,4.62595-16.44784,1.06106-3.32704,1.25575-4.5053,3.08397-7.70992.57304-1.0044.74633-2.09576,1.02799-3.08397.05961-.20906.47923-.32282.51399-.51399.081-.44441.09292-1.64112,0-2.05598-.04091-.18265-.41248-.29119-.51399-.51399-.07253-.15937.06588-.40332,0-.51399-.57159-.96048-1.94053-1.67538-2.82697-2.31298l-9.7659,9.7659c-1.69257-1.27865-2.51181-3.31995-4.11196-4.62595-1.74615-1.42516-4.44494-3.10631-6.68193-4.11196-3.18047-1.42974-5.93472-1.28919-9.25191-2.05598-.19601-.0453-.30506-.4505-.51399-.51399-1.00327-.30487-1.3973.48821-1.54198.51399-1.67927.29954-3.35-.14462-5.13995.51399-5.38691,1.98219-8.64832,6.93153-12.07888,11.05089-1.51074,1.8141-3.29629,3.75539-4.62595,5.65394-3.54018,5.05518-7.15935,9.72204-9.25191,15.41985-1.92008,5.22835-2.81518,10.96261-4.11196,16.44784Z"/><path class="cls-1" d="M138.26789,279.30499c-.09512-.47597.12072-1.12989,0-1.54198-.07134-.24363-.85482-.67819-.51399-1.54198-.80688-.65134-1.50791-1.72727-2.31298-2.31298-.10648-.07749-.39114.08357-.51399,0-.35105-.23886-.78486-.95621-1.02799-1.02799-.96757-.28567-2.4064-.2826-3.08397-1.02799h-4.62595c-3.85553,1.5396-6.60125,1.93658-9.50891,5.39695-1.35984,1.61841-3.04275,4.22734-3.59796,6.16794-.11928.41699.09593,1.06733,0,1.54198-.04028.19965-.48551.32307-.51399.51399-.08552.57454-.11225,2.05071,0,2.56997.04053.18741.90959,1.24571,1.02799,1.54198.1199.29991-.12373.7447,0,1.02799.4158.95163,2.84473,3.70036,3.85496,4.36896.21352.1413,1.1974.37709,1.54198.51399.21879.0869.32627.47252.51399.51399.59368.13126,1.42779-.11269,2.05598,0,.19356.03476.31108.46618.51399.51399,1.27476.30054,2.06652-.70342,3.34097-.51399-.20392.80356-1.11884,1.12361-1.79898,1.54198-5.33282,3.28073-17.09039,6.19028-23.12977,6.68193-3.44525.28053-10.55597.41015-13.87786,0-.18829-.02322-.31685-.47898-.51399-.51399-1.0854-.19281-1.58358-.26051-2.56997-.51399-15.81118-4.06296-24.42335-15.72058-27.49873-31.09669-1.99355-9.96737-.61131-20.56155,1.02799-30.3257.45872-2.73204,1.54029-5.38477,2.05598-8.22392.58176-3.20243,1.17155-6.67202,2.05598-9.7659,2.34096-8.18828,4.74448-16.79274,6.68193-25.18575,1.90025-8.23157,3.62237-16.46133,5.65394-24.67175.89359-3.6112,1.72294-6.8743,2.56997-10.2799.30249-1.21603.92252-3.6038,1.02799-4.62595.12254-1.18648.19281-4.05386,0-5.13995-.0342-.19275-.46336-.30958-.51399-.51399-.18434-.74514-.30249-1.85369-.51399-2.56997-.09882-.33474-1.71785-1.62926-1.54198-2.56997l-3.85496-3.85496c-1.60843-.08489-2.95578-.22569-3.85496,1.28499-.06582.11068.07259.35463,0,.51399-.10146.2228-.47302.33135-.51399.51399-.16188.72274.11965,1.77558,0,2.56997-.62424,4.14659-1.94241,8.16764-2.56997,12.33588-1.26842,8.42507-2.78763,16.44263-5.13995,24.67175-2.04983,7.17121-3.51866,14.61504-5.13995,22.10178-1.45916,6.73853-2.96745,13.78757-5.13995,20.55979-1.47535,4.59916-2.22162,9.53839-3.08397,14.39186-.74928,4.21762-1.85162,8.85286-1.54198,13.36387.01255.18227.50044.33097.51399.51399.4099,5.51553.61633,9.83417,2.05598,14.90585.68767,2.4224,2.05146,5.41389,3.08397,7.70992,6.74938,15.0085,16.19517,26.62659,32.63867,30.0687,1.08333.22676,1.85068.32834,3.08397.51399.19356.02918.32771.4948.51399.51399,8.07534.83361,17.17585-1.04117,24.15776-3.08397,4.82836-1.41267,9.4764-3.06584,13.87786-5.65394,4.99991-2.93991,9.70021-7.86722,12.59287-13.10687,1.00346-1.81755,1.56357-3.66378,2.05598-5.65394.05063-.20442.4798-.32118.51399-.51399.11934-.67205.10259-2.38319,0-3.08397-.02786-.19068-.47409-.31453-.51399-.51399Z"/><path class="cls-1" d="M297.3493,85.78592c1.07066-.93858,2.0034-2.18718,3.08397-3.08397,5.74975-4.77164,14.70093-12.93539,21.58778-15.41985,3.91833-1.41355,7.22128-1.62625,11.30789-2.05598.18748-.0197.33016-.499.51399-.51399,2.08861-.17003,5.08975-.14136,7.19593,0,.18202.01223.32978.49881.51399.51399,4.66335.38418,5.9516.23617,10.2799,2.05598,10.18597,4.28256,18.87689,11.23824,27.75572,17.47583,7.15508,5.02663,15.79543,8.13137,24.15776,10.2799,5.68306,1.46017,11.13082,1.17813,16.96183,2.05598,4.87241.73353,10.62743,1.23555,15.41985.51399,4.81908-.7255,10.15391-.18371,14.90585-1.02799,7.72417-1.37233,15.46816-2.529,22.61577-5.65394,4.95235-2.16515,9.53752-4.26204,13.10687-8.48092,1.10184-1.3023,2.11533-3.37133,3.59796-4.62595l.51399-1.02799c.57517-1.74377.70404-3.3165,1.02799-5.13995.03501-.19701.4904-.32545.51399-.51399.12141-.96907-.0837-2.08384,0-3.08397-.18221-.58646-1.48934-1.87164-1.54198-2.05598-.09041-.31685.09098-.71151,0-1.02799-.24018-.83587-5.74185-4.44833-6.93893-4.88295-.67192-.24395-1.94066-.86567-2.56997-1.02799-2.50667-.64645-5.08386-.63264-7.70992-1.02799-.1935-.02911-.32765-.49473-.51399-.51399-1.5487-.15987-4.64829-.1876-6.16794,0-.18829.02328-.31685.47898-.51399.51399-1.17104.20806-2.39479.14757-3.59796.51399-12.40866,3.77961-18.21024,11.52297-24.41476,21.84478-.86304,1.43582-1.00979,1.22262-1.54198,3.08397-.05973.20919-.47898.32282-.51399.51399-.23698,1.29521.29031,2.15718.51399,3.34097,1.04882.05973,1.67017.78586,2.82697.51399.19752-.04643.30713-.45439.51399-.51399.32815-.09449.73874.10648,1.02799,0,.47817-.17587,2.71548-1.30588,3.08397-1.54198.86994-.55723.95797-1.25606,1.28499-1.79898,1.14011-1.89247,1.99913-4.01922,3.08397-5.65394,1.53489-2.31279,3.89901-4.42116,5.65394-6.68193,2.99607-3.85942,6.2559-4.95379,11.05089-5.91094.19946-.03978.32332-.48607.51399-.51399.94592-.13841,3.72088-.16062,4.62595,0,.57454.10196,2.09469,1.26623,3.08397,1.02799l4.88295,3.34097c-.14626,1.46926.20643,3.21548,0,4.62595-.0278.19005-.47014.31234-.51399.51399-.10139.46681.11689,1.1137,0,1.54198-.06067.22249-.82131,1.1925-1.02799,1.54198-.08031.1359.07328.4035,0,.51399-.30255.45633-1.32452,1.41091-1.79898,1.79898-1.80607,1.47748-4.87398,3.44801-7.19593,4.11196-2.47849.70875-5.15745,1.25587-7.70992,2.05598-7.87619,2.46896-16.0609,3.31631-24.67175,4.11196-5.00423.46242-11.74308.60328-15.93384,1.54198-1.67168.37445-3.21673-.43864-4.11196-.51399-3.53572-.29759-6.47074-.37025-9.7659-1.02799-4.58755-.91574-8.84872-2.46946-13.36387-3.59796-10.02472-5.11592-17.08173-14.0329-25.69974-21.07379-3.79423-3.09991-6.67177-4.96339-11.30789-6.68193-1.6521-.61238-2.92698-1.14306-4.62595-1.54198-2.00597-.47095-4.63888-1.80375-6.68193-2.05598-2.63516-.32533-8.06185-.22243-10.79389,0-.18384.015-.32652.49429-.51399.51399-2.78594.29295-5.12564.32307-7.70992,1.02799-.23328.06368-1.25713.92622-1.54198,1.02799-4.68048,1.67312-6.90398,2.73543-10.79389,5.65394-5.54251,4.15845-14.57086,13.63291-17.73282,19.27481-.27977.49925-.65316,1.10397-1.02799,1.54198l.77099,1.28499h2.56997Z"/><path class="cls-1" d="M192.23735,193.46785c2.87773-11.5694,5.48629-23.06357,8.73791-34.43766,1.66571-5.82636,3.09639-12.1036,4.62595-17.98982,1.35614-5.2185,3.48515-11.06507,4.11196-16.44784.19005-1.63202-.3407-3.18988.51399-4.62595.51205-.86028,1.93488-1.20122,1.54198-2.56997-1.63817-2.04167-3.26166-2.64357-5.91094-2.31298-.1893.02365-.32074.48494-.51399.51399-1.29126.19444-2.35652-.22487-3.59796.51399-1.07812.64168-2.14984,2.15869-3.59796,3.08397-1.17926.75355-.54643,1.48984-.77099,2.31298-.16916.62035-.72199,1.49066-1.02799,2.56997-1.514,5.34041-1.04524,11.62857-2.56997,16.96183-1.75669,6.14497-4.02851,11.87917-5.13995,18.50382-.90928,5.41997-2.74434,10.72588-4.11196,15.93384-2.02687,7.71864-3.17545,15.74235-5.13995,23.64376-3.11835,12.54268-6.17032,24.60575-11.30789,37.00763-.87201,2.10504-1.97115,4.59101-2.56997,6.68193-.0623.21766-2.30902,3.27327-2.56997,3.59796-1.91211,2.37967-4.06258,2.94681-6.42494,4.36896-2.91839,1.75694-4.00705,1.9325-7.19593,2.56997-1.78957.35776-2.72821.33863-4.62595.51399-.18566.01719-.3311.50057-.51399.51399-1.71986.12655-5.65627.27331-7.19593,0-.19275-.0342-.30958-.46342-.51399-.51399-3.53484-.87483-6.2005-2.41945-9.25191-4.11196-.14161-.07855-.40244.07134-.51399,0-.72149-.46167-.59318-.90715-.77099-1.28499-.09826-.20881-.4239-.30995-.51399-.51399-.36906-.83625-.72538-2.65016-1.02799-3.59796-.26729-.83731-.32213-1.09638-.51399-2.05598-.03984-.19946-.48607-.32332-.51399-.51399-.14814-1.01262-.14814-3.61327,0-4.62595.02786-.18999.47014-.31227.51399-.51399.10152-.46656-.11677-1.11338,0-1.54198.29941-1.09895,2.0162-3.37077,2.56997-4.62595.58031-1.31517,1.13654-3.07311-.77099-3.34097-1.79679-.25229-1.58051.35532-2.56997,1.02799-.76754.52184-1.54694.77049-2.31298,1.79898-1.13842,1.52868-4.24893,7.40813-4.62595,9.25191-.12411.60717.11162,1.42691,0,2.05598-.03495.19708-.49072.3257-.51399.51399-.23642,1.91518.0795,3.97543.51399,5.65394.25926,1.00139.66797,2.61935,1.02799,3.59796.23761.64569,1.12261,1.88758,1.54198,2.56997,2.45722,3.9977,6.27824,5.32046,10.0229,7.96692,1.35752-.13132,3.02047,1.34735,4.11196,1.54198.77363.13797,1.77112-.12028,2.56997,0,.19356.02918.32771.4948.51399.51399,2.32314.23981,7.48794.28128,9.7659,0,.18842-.02328.31736-.47961.51399-.51399.63101-.11018,1.45897.12906,2.05598,0,.18741-.04047,1.24515-.90897,1.54198-1.02799,3.64339-1.46079,5.54766-2.17431,8.73791-4.62595,5.38182-4.1358,11.38914-9.69067,15.67684-15.16285,1.18353-1.51042,3.39154-4.0041,4.11196-5.65394,4.8901-11.19827,8.27493-22.68235,11.30789-33.92366.82307-3.05046,1.79428-6.13305,2.56997-9.25191Z"/><path class="cls-1" d="M66.30861,218.65359c-.09575.34754-.09499,2.21729,0,2.56997.25242.93695,1.84761.53508,2.31298,1.28499,10.43123-.3215,21.4916-1.9581,30.3257-7.70992,1.56922-1.02165,2.6735-2.37045,4.11196-3.59796,10.16903-8.67743,21.8104-20.88255,24.92875-33.66666.14155-.58006-.13069-1.45138,0-2.05598.03796-.17543.99009-1.36655,1.02799-1.54198.12404-.57366.57134-5.8541.51399-6.16794-.04819-.26415-.81265-.77752-.51399-2.05598.55999-2.39686.00722-5.61818-.51399-8.22392-2.15775-10.78831-7.45669-21.35181-12.33588-31.86768-3.96608-8.54805-10.16746-16.45455-14.39186-25.18575-.63396-1.3104-1.01732-2.91676-1.54198-4.11196-.15115-.34434-1.00521-1.71566-1.28499-1.79898-.482-.14349-1.10611.2649-1.54198-.51399l-2.31298,3.85496c-.70197,4.15419-2.22514,8.61481-2.56997,12.84987-.15127,1.85815-.36078,9.9983,0,11.30789.07222.26195.838.67556,1.02799,1.02799,6.18036,11.46268,13.04494,24.25934,16.96183,36.49364.8749,2.73267,1.08553,3.64998,1.54198,6.68193.02918.19356.4948.32765.51399.51399.32633,3.16133.21759,8.58049,0,11.82188-.01217.18196-.49881.32978-.51399.51399-.19174,2.3281.07103,3.90836-.51399,6.16794-.46851,1.80996-1.36668,3.68863-1.54198,5.65394-1.64777,3.43596-3.57845,6.25189-5.65394,9.25191-1.38933,2.00829-2.42127,4.01351-4.36896,5.39695-4.42166,3.14069-10.15027,5.84186-15.41985,7.19593-4.19754,1.07869-8.502,1.78072-12.84987,2.56997-.62549.11357-1.5108-.14952-2.05598,0-.17167.04712-1.84071,1.5322-2.31298,1.79898.29113.71082-.91982,1.1494-1.02799,1.54198Z"/><path class="cls-1" d="M631.18897,166.74011c-.45903,6.23827-.13998,13.40151,1.02799,19.01781.54612,2.62588,1.35269,5.01434,2.05598,7.70992,3.02637,4.96477,6.37832,10.01606,12.07888,12.07888.21264.07692.31729.46035.51399.51399.42854.11689,1.0758-.10183,1.54198,0,.20185.04411.32407.4862.51399.51399,1.25111.18309,4.36952.15862,5.65394,0,.50659-.06256,2.45509-.86649,3.08397-1.02799,8.02559-2.06037,15.23977-8.96028,20.3028-15.16285,9.64569-11.81655,14.80289-24.20946,16.96183-38.54962.02918-.19356.4948-.32765.51399-.51399.4259-4.12595.41448-16.0427-.51399-19.53181-.63051-2.36963-2.3264-5.9723-3.59796-8.22392-2.15731-3.8202-2.46714-4.08002-5.91094-6.42494-1.12468-.76578-1.83199-1.48627-3.08397-2.05598-.22274-.10133-.33129-.47309-.51399-.51399-.5027-.11256-2.57361-.1103-3.08397,0-.16709.03614-1.21133.83254-1.54198,1.02799-.13584.08037-.40344-.07322-.51399,0-.84346.5593-2.55579,2.47749-3.34097,3.34097-.37063.40764-1.21428.90326-1.02799,1.54198,1.02473,1.38117,2.92604.55892,4.36896.77099.15466.02271,1.10523.94109,2.05598.51399,1.25073,1.19162,3.33375,2.29779,4.36896,3.85496.5315.79942,1.54958,2.68065,2.05598,3.59796,2.72608,4.93773,2.51162,9.46247,3.08397,14.90585.01976.18748.49906.33009.51399.51399.40909,5.0245.05383,10.951-1.02799,15.41985-.92998,3.84179-2.6272,7.62829-3.59796,11.82188-3.17426,6.07941-6.19617,11.5231-10.2799,16.96183-2.66867,3.55423-5.27824,5.87963-9.50891,7.45293-.87006.32357-2.46111.24966-3.08397,1.02799h-5.13995c-2.24509-1.07028-5.3199-2.19502-6.93893-4.36896-.07855-.10553.08408-.39472,0-.51399-.63641-.90338-1.66779-2.03038-2.05598-3.08397-.41379-1.12317-.31428-2.4741-.51399-3.59796-1.52655-8.59222-1.03746-19.40826,1.02799-27.75572,1.65944-6.7064,3.2924-12.85621,5.65394-19.53181,2.56577-7.25277,5.65752-12.22896,10.2799-18.50382,2.26761-3.07826,2.44606-1.72551,4.88295-3.34097,1.4079-.93325,1.97862-2.83268,3.34097-3.85496.38311-1.33656-1.515-2.34084-2.31298-3.34097-.80111.10761-1.84127-.15749-2.56997,0-.36071.07799-2.5381,1.28894-3.08397,1.54198-2.04713.94906-6.03141,5.41684-8.22392,7.19593-5.09007,4.13041-9.45557,10.38807-13.10687,15.67684-4.33953,6.28577-7.09886,13.11741-8.73791,20.0458-.95885,4.05329-2.25394,8.55583-2.56997,12.84987Z"/><path class="cls-1" d="M17.99309,186.78591c1.24966,3.26135,4.07532,7.95933,6.16794,10.79389,4.75201,6.43667,12.07882,13.76586,18.76081,18.24682.49015.32871,1.46958,1.41574,2.05598,1.54198.50734.10924,3.15669.1216,3.59796,0,1.02146-.2814.62122-1.67531.77099-2.31298.08257-.35136.81134-.78323.51399-2.05598-.04561-.19526-.44673-.30349-.51399-.51399-.09763-.30569.09236-.70637,0-1.02799-.02811-.09807-1.06821-1.14651-1.28499-1.28499-.81755-.52228-2.28192-1.00139-3.08397-1.54198-8.76081-5.90504-19.00062-19.51662-21.33079-29.55471-.9185-3.95686-.80883-8.32167-1.54198-12.33588-.08514-.46644-.08514-1.58948,0-2.05598.94837-5.19247,1.66076-10.43324,3.08397-15.41985.36611-1.28273.73686-2.67338,1.02799-4.11196,2.38733-3.82566,6.26607-6.95079,10.0229-9.50891.53878-.36686,3.37968-2.50993,3.59796-2.56997.43688-.12003,1.1056.12028,1.54198,0,.28191-.07768.73874-.9426,1.02799-1.02799,2.0002-.59048,3.80408-1.08101,5.65394-1.54198.20461-.05095.32125-.47961.51399-.51399,1.79095-.31943,5.01258.12668,6.68193.51399,1.51676.35193,3.31813,1.38186,5.13995,1.54198,16.98806,8.68916,26.19253,25.21637,21.84478,43.94656-.69903,3.0115-2.22909,6.03888-2.56997,9.25191l-3.59796,4.62595c.39591.25135.99649,1.20549,1.28499,1.28499.39384.10848,3.20419.10848,3.59796,0,.23548-.06488.67857-.79044,1.02799-1.02799,4.1587-2.82716,7.85386-5.04301,10.53689-9.50891,1.58214-2.63341,2.4214-4.6594,3.08397-7.70992.45401-2.08999.6893-3.91814,1.02799-6.16794.02918-.19356.4948-.32765.51399-.51399.339-3.28406.10949-8.81804-.51399-11.82188-.50126-2.41525-2.21811-5.37831-2.56997-8.22392-7.04723-12.21384-20.80261-27.64053-36.23664-26.47074-.18315.01393-.32827.49687-.51399.51399-2.23637.20668-4.52895.03852-6.68193.51399-3.68342.81353-9.62774,3.46313-12.84987,5.65394-2.92015,1.98558-7.31803,7.37399-9.7659,8.73791-.24307.13546-.67499-.096-.77099,0-.09593.096.13553.52786,0,.77099-.40896.73404-1.91763,1.76203-2.56997,2.56997-5.17847,6.41439-6.24235,14.07205-7.70992,21.58778-.37809,1.93652-1.35011,4.82328-1.54198,6.68193-.36981,3.58272-.16822,10.09424.51399,13.36387.36172,1.73335,1.3572,4.85829,2.05598,6.68193Z"/><path class="cls-1" d="M327.93199,258.74519c.11582-.51036-.07322-1.22852,0-1.79898-.57573-.06682-1.27018.1056-1.79898,0-2.04525-.4084-3.77804-.70856-6.16794-.51399-.18384.015-.32652.49429-.51399.51399-1.98809.20906-4.06515-.47277-5.39695,1.28499-7.50594,17.40141-25.02531,25.47575-41.37659,30.58269-.32062.10014-.73542-.10836-1.02799,0-.28253.10466-1.34949.9852-1.54198,1.02799-1.28436.28586-1.94266-.61438-3.08397-.51399l-3.34097-2.82697c.15542-1.09367-.22211-2.60618,0-3.59796.19927-.88933,1.51871-1.81642,2.05598-2.56997,3.77741-5.29737,5.80145-7.31991,11.05089-11.05089,6.82336-4.84951,15.18048-9.24758,23.12977-12.33588,6.27579-2.43809,12.82402-2.74672,19.53181-3.59796.19049-.02416.32903-.49712.51399-.51399,7.54133-.68667,16.04458.60052,23.64376,0,2.8175-.22261,1.88149-2.09664.51399-3.59796-3.96395-1.94135-8.16092-2.13654-12.33588-3.08397-1.89103-.42917-4.24316-1.27281-6.16794-1.54198-7.41076-1.03621-16.01108-.75073-23.12977.51399-3.62745.6445-7.32951,1.48357-10.79389,2.56997-6.56529,2.05887-16.16267,7.0018-20.81679,12.07888-3.47342,3.78914-7.14027,7.8388-9.7659,12.33588-.51788.88707-1.02774,1.71491-1.54198,2.56997-.45527.75713-1.73649,5.33514-1.54198,6.16794.04593.19632.45056.30525.51399.51399.30493,1.00333-.48814,1.39736-.51399,1.54198-.46261,2.59375.80525,2.78945,1.02799,3.59796.12034.43663-.12059,1.10617,0,1.54198.31711,1.14588,2.44957,2.64696,2.56997,3.08397.12028.43651-.12022,1.10548,0,1.54198.17003.61702,2.48351,2.29566,3.34097,2.31298,2.16315,1.06909,5.54659,1.82954,8.22392,1.54198,2.30049-.24702,4.9893-1.00779,7.19593-1.54198,9.66049-2.3387,20.13747-7.05965,28.26972-12.84987,3.50529-2.49575,6.66951-5.02249,9.50891-8.48092,3.25024-3.95874,5.69906-8.13451,8.22392-12.84987.23673-.44209,1.39931-1.4271,1.54198-2.05598Z"/><path class="cls-1" d="M590.32638,223.02255c1.62242-1.14294,1.41022-2.97668,2.31298-4.62595l-1.79898-.51399c-47.80052-.13415-95.60436.1792-143.40457,0-.17192-.00063-.34201-.5133-.51399-.51399-33.23737-.12586-66.47732.09418-99.715,0-.54712.43419-2.63404,1.61314-2.82697,2.31298-.19068.69187.35582,1.58132-.51399,2.05598l1.79898,2.31298,244.66156-1.02799Z"/><path class="cls-1" d="M87.3824,116.88261c2.56495-9.98268,4.54784-20.15441,6.68193-30.3257,1.13233-5.39651,2.02705-10.94611,3.59796-16.44784,1.27187-4.45429,1.47372-8.95632,2.56997-13.36387.52077-2.09344,1.35457-5.65125,1.54198-7.70992.36027-3.95598.36862-13.03867-.51399-16.44784-.89083-3.44111-2.29246-6.78998-3.08397-10.2799-.64306-.60221-1.0977-1.97623-1.54198-2.56997-1.19012-1.59061-3.38043-3.33168-4.88295-4.36896h-1.02799c-.47497.86981-1.36423.32338-2.05598.51399-.35394.09757-2.63661,2.43708-2.31298,3.08397h-1.02799c-.35118,1.98878-2.04243,3.37579-1.54198,5.65394,1.12367-.1632,2.15141-.84177,3.34097-.51399.23548.06488.67857.79044,1.02799,1.02799.12285.08351.40739-.07749.51399,0,.37972.27601,1.59362,1.45389,1.79898,1.79898.0618.10384.45489.87966.51399,1.02799.11106.27852-.09506.69539,0,1.02799.05948.20806.47371.31974.51399.51399.41938,2.02053,1.26353,7.87877,1.02799,9.7659-.02372.19018-.49661.32859-.51399.51399-.32338,3.4551.11658,6.6835-1.02799,9.7659-1.58584,4.27095-3.29711,8.99987-4.62595,13.36387-4.51383,14.82435-6.4277,29.64217-11.82188,44.20356-1.0241,2.76467-1.3584,6.74825-2.05598,9.7659-.0453.19607-.4505.30512-.51399.51399v1.02799c.38211.8028,1.07517,1.38481,1.54198,2.05598,2.36204,3.39587,5.77711,4.62746,8.99491,7.45293l2.31298.51399c-.38587-.94247.43324-1.49581.51399-1.79898.82012-3.0782,1.18742-6.38541,2.05598-9.7659Z"/><path class="cls-1" d="M68.87858,70.62307c.09299.42898,1.44906,2.141,1.54198,2.56997.58797,2.71297.85438,5.06227,1.54198,7.19593.98601,3.05944,1.46312,5.02513,3.08397,7.96692.14544.26396.07561.95006.77099,1.28499l1.79898-2.31298c1.75669-7.19907,3.76731-13.83244,4.88295-21.33079.031-.20793.81152-.77777.51399-2.05598-.04587-.1972-.45426-.30694-.51399-.51399-1.68862-5.85911-2.99738-10.80249-4.36896-16.44784-.22406-.92233-.32576-1.51074-.51399-2.56997-.03501-.19708-.49072-.3257-.51399-.51399-.15102-1.22362-.10597-3.36123,0-4.62595.21766-2.59633,1.05202-5.70997,1.54198-8.22392.23309-1.19577.19645-2.91845.51399-4.11196.92095-3.46074,3.10856-6.87004,5.13995-9.7659,5.38164-7.67165,11.69175-10.35657,20.3028-12.07888.19952-.0399.32338-.48607.51399-.51399,2.50221-.36611,7.49961-.04122,9.7659.51399.57686.14136,1.3828.33047,2.05598.51399.39804.10855,3.0073,1.28116,3.59796,1.54198,3.10624,1.37157,6.82882,3.84699,8.99491,6.42494,2.96702,3.53102,4.22358,6.20314,5.13995,10.79389.03984.19946.48614.32332.51399.51399.70568,4.82278-.3247,11.24972-1.54198,15.41985-.26365.90332-1.37101,2.76737-1.54198,3.59796-.10798.52485.06839,1.2245,0,1.79898.82345-.28329,1.08578.47999,1.28499.51399.60755.10384,2.52041.12185,3.08397,0,.16715-.03614,1.21139-.83254,1.54198-1.02799.1359-.08031.4035.07328.51399,0,.45577-.30217,1.41192-1.32508,1.79898-1.79898,1.15003-1.40765,2.31567-3.23173,3.59796-4.62595,1.27627-3.26674,2.03013-7.35398,1.54198-11.30789-.06155-.49869-.87966-2.47134-1.02799-3.08397-1.00427-4.14848-1.57706-6.15683-4.11196-9.7659-.08056-.1147-.05534-.30374,0-.51399C130.50871,1.89163,113.23812-3.14548,98.94728,2.00476c-3.63693,1.31071-7.63927,3.80288-10.79389,5.65394-6.344,3.72264-11.65398,8.18232-14.13486,15.16285-1.97542,5.55839-3.5868,11.39115-4.62595,16.96183-.64701,3.46884-.57573,7.23037-1.02799,10.79389-.02416.19049-.49712.32896-.51399.51399-.40181,4.41269-.20768,10.3299.51399,14.39186.27086,1.52429.20799,3.72778.51399,5.13995Z"/><path class="cls-1" d="M429.18898,104.03274c-.18767.64086-.30117,1.32144-.51399,2.05598-1.59425,5.50323-3.26844,10.92659-4.62595,16.44784-2.3515,9.56443-4.86137,19.04247-7.19593,28.78371-2.00829,8.38009-4.43703,16.75095-6.68193,25.18575-1.66979,6.27416-3.32315,12.6095-4.62595,19.01781-.25373,1.24828-.26026,2.93866-.51399,4.11196-.02767.12825-.93632,2.21911-1.02799,2.31298-.03696.0379-.47252-.10259-1.02799.257-1.22777.79496-.15184,2.23837.77099,2.82697.23215.14807,1.25713.36084,1.54198.51399.93538.50295,1.15486,1.55962,3.08397,1.02799.31278-.08615,1.6868-1.85809,2.56997-2.05598,1.6339-.36598,3.47668.47597,5.13995-.51399,1.3872-.82558,2.2471-2.83243,3.34097-3.85496-.18227-.58646-1.48934-1.87158-1.54198-2.05598-.15077-.5283-.49856-1.45559-.51399-1.54198-.12668-.71057-.14349-3.44801,0-4.11196.06582-.30418.77319-1.75142,1.02799-2.56997,4.9398-15.86576,10.05189-31.99775,13.87786-48.31552.99668-4.25056,1.51902-8.6246,2.56997-12.84987,1.3914-5.59384,2.18498-11.39134,3.59796-16.96183.60547-2.38689,1.0716-4.05493,1.54198-6.68193.04279-.2388.85149-.83129.51399-2.05598-.03376-.1226-1.5588-1.65605-1.79898-1.79898-.11062-.06582-.35463.07259-.51399,0-.2228-.10146-.33129-.47309-.51399-.51399-.62693-.14042-3.98835-.13785-4.62595,0-.18509.04003-1.225.88437-1.54198,1.02799-.30424.13791-1.53533-.14738-1.79898.77099-.0923.32162.09769.7223,0,1.02799-.06601.2068-.4547.31165-.51399.51399Z"/><path class="cls-1" d="M144.69282,117.6536c-.82269.70135-1.50503,1.59092-2.31298,2.31298l1.28499,1.28499h1.02799c1.22714-1.18516,4.55926-1.38833,6.16794-1.02799.18271.04091.29119.41254.51399.51399.15937.07259.40338-.06582.51399,0,.2009.11959,1.26089,1.1974,1.28499,1.28499.17185.62348.08634,3.28494,0,4.11196-.23403,2.24245-1.34202,5.52501-2.05598,7.70992-2.85916,8.75009-4.28846,17.56724-7.70992,26.72773-2.71761,7.27618-4.13875,13.69879-5.13995,21.58778-.02409.1903-.49385.32671-.51399.51399-.10547.98256-.10547,2.61546,0,3.59796.0202.18773.4968.32846.51399.51399.1221,1.31397-.1834,2.85822,0,4.11196.02786.19005.4702.31234.51399.51399.53614,2.46808.99637,3.39254,2.05598,5.65394.12009.25624-.09763.68861,0,1.02799.0544.18911,1.81247,2.76291,2.05598,3.08397.66935.8823,1.43112.99373,1.79898,1.28499,2.45421,1.94329,3.6971,2.74798,6.68193,3.59796.20925.05961.32338.47999.51399.51399.75091.13396,2.81342.11482,3.59796,0,.19005-.0278.31234-.47014.51399-.51399.46669-.10146,1.11357.11683,1.54198,0,.5443-.14839,1.92152-1.27049,2.56997-1.54198,3.40942-1.42735,6.07614-1.55855,9.25191-4.11196,1.36969-1.10121,5.65683-4.75307,6.42494-5.91094.14155-.21327.36686-1.29691.51399-1.54198.30104-.50138,1.35802-1.38149,1.54198-2.05598l1.02799-5.39695c-.64017.28617-1.24031.58013-1.79898,1.02799-2.02649,1.62487-3.78149,5.10237-6.16794,6.68193-2.14589,1.42032-5.27742,1.72388-7.70992,2.56997-.2681.0933-1.35526.98765-1.54198,1.02799-.61156.13226-2.94455.11658-3.59796,0-.18848-.03363-.30079-.44592-.51399-.51399-.30569-.09763-.70637.09236-1.02799,0-.23993-.06889-.6775-.78975-1.02799-1.02799-.12279-.08351-.40733.07749-.51399,0-.34145-.24815-2.2678-2.15574-2.31298-2.31298-.0923-.32162.09769-.72224,0-1.02799-.06764-.21182-.47409-.32187-.51399-.51399-.32438-1.563-.27463-3.55009-.51399-5.13995-1.07423-7.13519.38926-14.88678,2.05598-21.58778,1.70612-6.85912,3.92003-13.81117,5.65394-20.55979,1.19344-4.64478,1.64269-8.82663,2.56997-13.36387.11444-.55973.96958-2.61032,1.02799-3.08397.17957-1.45402.17957-4.71386,0-6.16794-.02322-.18817-.47804-.31635-.51399-.51399-.11357-.62536.14989-1.51199,0-2.05598-.06488-.23548-.79044-.67857-1.02799-1.02799-.08583-.1263.07586-.41361,0-.51399-.89642-1.18648-2.45308-1.5689-3.34097-2.82697l-4.11196-1.02799c-1.4409.78988-3.41136.53181-5.13995,1.02799-.71584.20549-2.77082,2.40396-3.59796,3.08397-.10553.08677-.418-.08175-.51399,0Z"/><path class="cls-1" d="M475.44852,121.50856c-.28862-.48501-3.83463-4.01533-4.36896-4.36896-.21025-.1391-1.18899-.38581-1.54198-.51399-.21276-.07724-.31736-.46047-.51399-.51399-.42885-.11677-1.07586.1019-1.54198,0-.20185-.04411-.32401-.4862-.51399-.51399-.86655-.1268-2.7092-.10968-3.59796,0-.18829.02328-.31692.47905-.51399.51399-3.98961.70781-7.21845,1.78599-10.79389,3.08397-3.90183,1.4165-8.09122,4.45385-11.30789,7.19593-1.29998,1.10824-2.71912,2.25864-2.31298,4.11196l2.82697-.51399c3.63894-3.36926,7.31815-5.01057,11.82188-6.16794,1.57173-.40388,4.17069-1.35884,5.65394-1.54198.85394-.10541,3.37799-.16439,4.11196,0,.18271.04091.29119.41254.51399.51399.15937.07259.40338-.06582.51399,0,.23912.1423,1.76391,1.67676,1.79898,1.79898.09236.32162-.09763.7223,0,1.02799.06814.2132.48043.32551.51399.51399.14011.78536.1039,2.75664,0,3.59796-.02322.18829-.47892.31692-.51399.51399-1.8094,10.18428-3.92599,20.25122-7.19593,29.8117-1.55234,4.5388-2.98182,8.81502-4.11196,13.36387-.43494,1.75092-1.36354,4.43961-1.54198,6.16794-.35689,3.45792-.11087,9.15415.51399,12.33588.13804.7026.83712,2.3409,1.02799,3.08397.63779,2.48264.83022,2.5851,2.05598,4.62595.14713.24495.37257,1.32872.51399,1.54198.36385.54838,2.25783,2.41293,2.82697,2.82697.10654.07749.39121-.08351.51399,0,.35111.23886.78492.95621,1.02799,1.02799.71628.21151,1.8249.32965,2.56997.51399.20442.05057.32125.4798.51399.51399.75311.13371,2.81216.11501,3.59796,0,.19005-.0278.31234-.47014.51399-.51399.46669-.10146,1.11357.11683,1.54198,0,.45175-.12317,1.99669-1.18955,2.56997-1.54198.95019-.58402,1.40872-.8055,2.31298-1.79898.37282-.40953,1.21057-.89918,1.02799-1.54198-1.05535-1.58547-1.8402-.12988-2.82697.257-.21201.08314-1.45559.49862-1.54198.51399-.5827.1039-1.96381.09023-2.56997,0-.1903-.0283-.31234-.4702-.51399-.51399-.46675-.10139-1.11363.11683-1.54198,0-.22243-.06067-1.19244-.82138-1.54198-1.02799-.13584-.08031-.40344.07328-.51399,0-.33342-.22111-1.6132-1.48683-1.79898-1.79898-.06632-.11143.07303-.35638,0-.51399-.09813-.21188-.43381-.31296-.51399-.51399-.11099-.27852.09512-.69539,0-1.02799-.05979-.20931-.47999-.32338-.51399-.51399-.9803-5.49614,1.06658-12.52172,2.56997-17.47583,1.98571-6.54327,4.93766-13.54049,7.19593-20.0458.72212-2.08001,1.37038-4.20488,2.05598-6.16794,1.21446-3.47712,1.18127-7.27724,2.05598-10.79389.28598-1.14959.94241-3.57425,1.02799-4.62595.20116-2.47071.33944-7.9604,0-10.2799-.02786-.19068-.47409-.31453-.51399-.51399-.19557-.97842-.25493-2.09363-.51399-3.08397-.08012-.20097-.4158-.30211-.51399-.51399-.07297-.15755.06638-.4025,0-.51399Z"/><path class="cls-1" d="M323.82004,223.02255c-.37665-.97648.4404-1.52285.51399-1.79898.11582-.43419-.10566-1.08201,0-1.54198.0448-.19494.44711-.30343.51399-.51399.1908-.6002-.22839-1.65568-.77099-1.79898h-134.15266c-.16627,0-.9404,1.05535-1.28499,1.28499l-.51399,3.08397,2.31298,2.31298h130.5547l2.82697-1.02799Z"/><path class="cls-1" d="M171.67755,219.68158c.16847-.70066-.02918-2.11201-.77099-2.31298h-66.30534c-.16878,0-.30613.46229-.51399.51399-2.22419.55327-4.46483.9377-6.68193,1.54198-.82125.22387-2.64,1.62474-3.59796,2.05598-.5901.26572-2.00886-.20084-1.79898,1.54198l2.31298,1.02799h74.01526l2.31298-1.02799c.05365-.41379-.09474-.9372,0-1.28499.0901-.33053.95514-1.75293,1.02799-2.05598Z"/><path class="cls-1" d="M711.62917,220.96657c.8877-.11557,1.91361.07855,2.82697,0-.50189-1.61734-2.15932-.85438-3.34097-1.02799-7.08581-1.04085-15.32322-1.78374-22.61577-2.05598-25.66147-.95797-51.89177.71609-77.61323,0l-2.31298,1.02799-1.02799,3.34097,1.28499.77099h81.21119c7.11769-.61727,14.63656-1.15103,21.58778-2.05598Z"/><path class="cls-1" d="M328.70299,97.6078c3.41958.08219,6.8354.05019,9.7659-1.02799.64576-.23755,1.88751-1.12254,2.56997-1.54198.13044-.08012.40087.07504.51399,0,1.40809-.93419,1.97849-2.83212,3.34097-3.85496l2.05598-5.65394-1.02799-4.11196c-.85369-1.04518-1.35695-2.67658-2.05598-3.59796-.69783-.91995-1.51319-1.2026-2.31298-1.79898-.95025.42722-1.90226-.49147-2.05598-.51399-1.18472-.17336-4.46916-.17336-5.65394,0-.33273.04869-2.12475.9116-2.56997,1.02799-.78687.2058-2.27533.19225-3.08397.51399-.77745.30939-1.4288,1.09839-2.05598,1.54198-.10622.07517-.38399-.08307-.51399,0-.758.48463-.65605,1.12223-.77099,1.28499-.63076.89353-1.56112,1.43733-2.05598,2.56997-.12373.28329.1199.72808,0,1.02799-.12354.3092-.96374,1.30651-1.02799,1.54198-.11746.43073.10635,1.0822,0,1.54198-.0453.19607-.4505.30512-.51399.51399-.30575,1.00628.4702,1.35262.51399,1.54198.10635.45978-.11746,1.11131,0,1.54198.15165.55584,1.23567,2.42322,1.54198,3.08397.39503.85206.54725.86574,1.02799,1.54198.08094.11382.05565.30311,0,.51399l4.36896,2.31298Z"/><path class="cls-1" d="M44.20683,220.70957c-.04342-.15767-2.04061-2.15085-2.31298-2.31298-.09813-.05841-.96813-.49743-1.02799-.51399-.69081-.19118-1.58139.35619-2.05598-.51399-9.28447.16376-18.78867-.41982-27.75572.51399-2.39166.24909-5.04521,1.27539-7.70992,1.02799L.00327,219.93858c-.07887,1.93965,1.28649,1.30412,2.31298,1.54198,3.98522.92358,8.28221,1.2779,12.33588,2.05598h29.55471c-.13634-.84202.20028-2.10053,0-2.82697Z"/><path class="cls-1" d="M258.28569,269.28209c.20078-.07994.30198-.4153.51399-.51399.16213-.07542.41078.0655.51399,0,.76635-.48607.66803-1.27959,1.28499-1.79898-.60723-.73134-.9244-1.79302-1.79898-2.31298-.10296-.06124-.96744-.50044-1.02799-.51399-.59067-.13226-1.42603.11124-2.05598,0-.19689-.03476-.32564-.49072-.51399-.51399-1.92472-.23761-5.17352-.10905-7.19593,0-.17995.00973-.33492.50559-.51399.51399-3.0553.14393-7.55074-.48676-10.2799,0-.18848.03363-.30079.44592-.51399.51399-.30569.09769-.70637-.0923-1.02799,0-.7043.20222-1.28016,1.78405-1.79898,2.31298l.51399,1.28499c.85965-.23704,1.83299.89755,2.31298,1.02799.42923.11664,1.07599-.1019,1.54198,0,.20191.04417.32407.4862.51399.51399,2.7028.39547,15.4317.45633,17.98982,0,.19061-.03401.30468-.45414.51399-.51399.3326-.09506.74941.11099,1.02799,0Z"/><path class="cls-1" d="M348.23479,267.22611c-.22293-.10202-.3316-.47321-.51399-.51399-.59594-.13314-1.4463.12655-2.05598,0-.21941-.04555-1.86442-.99379-2.05598-1.02799-1.92579-.34352-12.98-.34346-14.90585,0-.18848.03363-.30079.44598-.51399.51399-.3055.09757-.70599-.09204-1.02799,0-.27526.07868-1.95779,1.80501-1.79898,2.31298.61702.51939.5187,1.31291,1.28499,1.79898.10252.065.35011-.07498.51399,0,.22293.10202.3316.47315.51399.51399.72287.16188,1.77558-.11959,2.56997,0,4.27352.64343,7.16267.30807,11.30789,0,1.60153-.11902,3.6865.25926,5.13995,0,.18854-.03363.30086-.44586.51399-.51399.30575-.09763.70643.09236,1.02799,0,.08734-.02503,1.25769-1.1942,1.28499-1.28499.40758-1.35426-.57115-1.47234-1.28499-1.79898Z"/></svg>